<svg width="1386" height="1926" viewBox="0 0 1386 1926" fill="none" xmlns="http://www.w3.org/2000/svg">
<path d="M782.468 1591.5C860.69 1504.69 900.931 1388.94 908.617 1273.19C917.66 1138.45 877.419 1003.71 926.251 873.041C1046.07 955.332 1189.85 968.896 1321.43 903.787C1409.59 1024.96 1340.42 1198.59 1294.3 1326.54C1237.78 1484.34 1044.71 1844.7 883.749 1903.48C567.247 2019.23 326.254 1648.92 180.663 1425.11C13.8217 1169.2 -58.9737 1071.08 132.284 792.56C269.736 592.259 380.964 598.589 520.224 797.985L593.924 944.48C583.525 848.626 555.944 756.84 490.835 684.045C425.726 611.249 429.796 643.352 432.961 627.074L607.036 432.652C629.644 403.263 623.766 356.692 647.73 329.563C671.693 302.434 742.228 274.853 760.766 272.14C836.726 259.933 833.109 294.748 869.733 305.599C906.809 316.451 1022.56 291.583 1062.8 278.018C1127.46 256.315 1204.77 191.207 1278.47 210.649C1352.17 230.091 1398.74 344.032 1382.01 399.645C1375.23 422.705 1233.71 501.378 1201.61 524.438C1112.53 587.286 985.03 671.837 930.32 764.979C823.614 947.193 879.227 1103.18 862.046 1298.06C853.455 1397.98 815.023 1497 782.468 1591.05V1591.5Z" fill="black"/>
<path d="M605.227 318.708C593.019 331.82 588.497 389.242 567.247 419.988C526.553 478.315 438.837 528.955 400.857 594.969C386.388 598.586 382.319 582.308 377.798 573.266C340.269 491.879 358.808 279.371 419.395 209.741C439.742 186.681 505.755 162.718 517.511 137.398C529.266 112.077 517.511 76.8101 523.389 48.7771L607.94 23.9091L674.857 92.183C680.735 17.579 713.289 -8.19324 787.441 2.2061C841.246 9.44043 820.448 51.0378 849.837 83.1401L894.6 32.4998L994.072 74.5493C994.072 103.487 985.481 129.711 988.646 160.005C995.428 224.209 1063.7 252.695 935.293 277.11C851.646 292.935 824.969 233.252 778.398 236.417C768.903 236.869 611.557 312.378 604.775 319.16L605.227 318.708Z" fill="black"/>
<path d="M332.581 584.567C249.386 600.392 165.287 653.293 114.194 721.115C80.7357 765.425 66.2671 830.082 19.244 863.993C23.3133 820.135 4.32318 776.277 1.15816 733.775C-10.5976 573.716 69.8843 497.755 118.264 357.138C136.802 303.785 164.383 141.917 185.633 110.267C211.858 70.9303 385.03 74.5475 413.515 115.241C446.069 161.359 385.029 202.957 361.97 241.841C292.792 359.851 339.815 457.514 332.129 584.567H332.581Z" fill="black"/>
<path d="M1320.07 863.088C1237.77 892.93 1144.18 907.85 1056.46 900.164C951.114 890.669 929.864 859.019 990.451 771.755C1037.93 703.029 1122.48 636.563 1200.25 604.461C1252.7 605.817 1335.44 811.091 1320.07 863.54V863.088Z" fill="black"/>
</svg>
