<svg width="1968" height="1689" viewBox="0 0 1968 1689" fill="none" xmlns="http://www.w3.org/2000/svg">
<path d="M1317.03 150.595C1319.75 158.281 1340.54 162.351 1347.78 162.803C1359.08 164.159 1371.29 165.064 1383.05 164.159C1419.67 161.446 1466.24 119.849 1495.63 155.116C1527.73 194.001 1475.28 235.598 1514.17 272.222C1515.07 237.407 1518.69 204.852 1563 214.347C1607.31 223.842 1652.52 286.691 1655.69 302.516C1666.09 349.991 1573.4 329.192 1545.82 340.044C1519.14 325.123 1506.93 293.473 1471.21 294.829L1516.43 342.304C1546.27 399.275 1512.81 449.011 1507.84 505.981C1505.13 534.014 1509.65 563.856 1507.39 591.436C1499.25 684.126 1423.29 852.776 1308.44 837.856C1310.25 845.542 1331.5 846.898 1337.83 846.898C1356.37 846.898 1371.74 842.377 1389.83 841.925C1401.58 910.651 1319.75 953.605 1263.23 968.526C1261.87 976.212 1274.08 973.499 1279.05 973.047C1333.76 968.526 1342.35 941.849 1376.72 930.545C1432.33 911.555 1468.05 968.978 1527.28 968.073C1553.96 968.073 1580.63 946.37 1598.72 978.925C1617.71 1013.74 1616.81 1089.25 1596.91 1123.61C1552.15 1200.93 1415.6 1189.62 1343.26 1161.59C1314.77 1150.74 1278.15 1118.64 1251.47 1117.73C1224.8 1116.83 1194.5 1143.05 1165.56 1143.96C1126.68 1145.31 1095.93 1128.13 1109.5 1085.63C1096.84 1092.41 1095.93 1109.14 1086.89 1119.54C1063.38 1147.57 991.036 1141.7 977.02 1106.88L969.333 1053.98C953.96 1081.11 969.333 1118.19 948.987 1139.89C928.64 1161.59 884.33 1177.87 872.122 1181.03C859.914 1184.2 837.759 1178.32 818.769 1181.94C799.779 1185.56 788.927 1190.98 783.954 1198.67C816.056 1190.98 870.314 1189.62 874.383 1233.03C878.452 1276.44 864.436 1264.23 867.601 1280.05C895.182 1254.73 878.452 1207.26 901.964 1183.29C925.475 1159.33 968.881 1157.07 997.819 1154.36C1023.14 1186.91 1038.51 1220.82 1077.85 1242.07C933.162 1320.75 735.574 1369.13 575.967 1305.37C552.003 1295.88 467 1245.24 476.947 1215.4C486.894 1185.56 525.779 1221.27 539.795 1223.99C553.812 1226.7 554.716 1229.87 553.36 1221.73C424.951 1175.61 401.891 1016 494.581 921.05C587.271 826.1 653.284 793.545 741 801.232C820.578 808.466 784.858 824.291 771.746 872.671C758.634 921.05 759.538 944.562 768.129 978.021C776.72 1011.48 796.162 1027.3 792.545 1046.75C788.927 1066.19 716.584 1078.85 712.063 1113.21C735.574 1090.6 776.72 1066.64 810.178 1080.66C843.637 1094.67 837.307 1110.05 856.749 1108.69C781.241 1056.24 831.881 1036.8 856.749 977.568C841.828 988.42 831.881 1017.36 809.274 1014.19C769.485 983.898 783.05 914.268 798.875 872.671C828.716 794.902 862.627 808.466 915.076 767.321C944.013 744.261 959.838 708.542 995.558 689.552C1019.52 676.44 1042.58 677.796 1064.28 667.849C1085.99 657.902 1093.22 641.625 1108.14 638.912C1128.94 635.295 1161.95 650.215 1184.55 652.476C1222.53 655.641 1267.75 641.172 1297.59 670.562C1327.43 699.951 1313.42 703.568 1326.98 715.776C1329.69 682.77 1308.44 658.806 1287.64 636.651C1286.74 629.417 1324.27 601.384 1331.5 591.436C1364.06 547.126 1349.14 495.13 1374 448.559C1380.79 436.351 1392.99 430.473 1394.35 417.361C1338.28 437.255 1343.26 491.965 1321.55 536.727C1272.72 637.103 1129.84 659.258 1085.08 543.961L1073.78 480.661C1047.1 521.806 1090.96 579.229 1073.33 613.592C1058.86 641.172 991.036 658.354 961.195 677.796C931.353 697.238 910.554 728.436 881.617 751.948C854.488 726.176 897.894 672.823 897.442 654.737C896.99 636.651 880.261 624.443 876.191 612.687C852.68 539.44 873.931 425.951 935.875 376.668C997.818 327.384 1048.91 340.496 1098.65 308.846C1114.02 284.43 1059.31 269.057 1055.69 247.354C1049.82 210.73 1109.95 175.011 1139.34 163.707C1157.43 156.925 1223.89 146.073 1227.96 143.813C1233.84 139.743 1227.96 121.658 1246.05 107.641C1264.13 93.6246 1325.17 75.0866 1354.56 80.0602C1383.95 85.0338 1428.71 102.215 1426.9 120.753C1423.74 151.951 1342.35 160.09 1318.39 150.595H1317.03ZM1185.46 498.747C1148.38 415.552 1251.47 392.945 1276.79 339.139C1302.11 285.334 1281.31 317.889 1286.29 307.941C1319.75 234.694 1401.58 303.872 1425.1 227.46C1396.61 261.37 1370.39 250.519 1333.76 255.945C1317.94 258.205 1296.23 270.866 1286.74 271.77C1271.82 273.126 1255.09 255.945 1240.17 255.04C1275.89 283.978 1267.75 328.288 1237.91 359.034C1232.03 364.912 1193.6 392.945 1187.27 394.301C1167.83 398.37 1125.78 387.067 1098.19 391.136C1070.61 395.205 1054.79 406.961 1041.22 420.073C1064.28 420.978 1088.25 405.605 1111.31 404.248C1198.57 398.823 1145.67 458.958 1185.91 499.199L1185.46 498.747ZM1221.63 788.12C1167.83 784.05 1131.65 836.047 1081.92 844.638C1032.18 853.229 972.498 818.413 932.257 855.489C997.366 830.621 1049.82 898.895 1053.88 957.674C1057.95 1016.45 1047.55 999.724 1049.82 1022.78C1062.93 1025.04 1057.05 1019.62 1059.31 1012.38C1069.26 979.829 1062.93 948.179 1109.5 956.318C1141.6 961.743 1151.55 983.446 1171.44 1005.15C1176.42 944.562 1066.09 936.875 1059.31 902.512C1052.08 866.793 1080.11 874.479 1104.07 863.176C1128.04 851.872 1154.26 823.387 1179.13 807.11L1221.18 788.12H1221.63ZM733.314 1253.83C664.135 1251.12 617.112 1180.13 616.208 1115.02C615.304 1049.91 627.512 1020.97 635.198 999.271C647.406 964.456 684.03 948.179 701.211 916.077C718.393 883.974 712.515 897.087 702.116 896.634C696.69 935.519 642.885 945.918 626.155 972.143C612.591 992.941 607.165 1055.79 596.314 1064.38C580.036 1077.94 537.987 1041.77 521.257 1068.45C595.861 1063.48 587.723 1133.11 610.782 1180.13C633.842 1227.15 672.726 1242.53 652.38 1294.52C660.97 1291.81 660.066 1277.79 665.944 1269.65C682.221 1247.05 696.69 1256.99 717.941 1258.8C739.191 1260.61 735.122 1261.52 733.766 1254.28L733.314 1253.83ZM1470.31 1036.8C1468.5 1028.66 1461.27 1028.21 1454.49 1027.3C1423.29 1025.04 1375.81 1055.34 1343.71 1061.67L1298.5 1068C1332.86 1084.73 1364.96 1068 1399.78 1072.97C1434.59 1077.94 1424.64 1083.82 1438.66 1086.08C1418.31 1057.15 1436.4 1032.28 1470.31 1036.35V1036.8Z" fill="black"/>
<path d="M1095.02 60.1457C1138.88 61.5021 1186.36 30.7562 1228.41 32.5648C1242.88 33.017 1291.71 44.7727 1287.19 65.1193C1277.24 92.248 1248.75 80.9444 1225.69 82.7529C1237 141.984 1153.8 140.175 1113.56 153.74C1073.32 167.304 1051.17 187.651 1029.01 222.466L1013.19 213.875C1012.28 224.727 1023.13 228.344 1027.65 237.839C1067.9 324.651 989.222 309.73 939.486 336.859C844.083 388.855 814.694 518.621 848.153 616.284C856.291 640.248 867.595 638.439 863.525 672.35C859.456 706.261 828.71 769.109 780.331 774.535C737.377 779.509 699.849 765.944 656.895 777.7C630.671 784.935 603.994 814.776 613.037 760.971C622.08 707.166 652.826 703.548 640.618 643.413C628.41 583.278 632.027 615.832 624.341 612.215C630.219 645.222 632.479 666.472 616.202 696.766C603.09 721.182 596.308 734.746 584.552 760.067C552.45 828.34 482.367 768.205 452.525 729.773C460.664 787.195 497.288 806.638 549.737 815.68C556.067 817.037 562.849 811.611 561.04 822.463C559.232 833.314 508.139 867.225 495.479 878.981C441.222 928.265 443.483 962.176 355.314 955.846C310.552 952.68 191.638 907.466 175.813 864.512C159.988 821.558 171.743 847.783 172.195 838.74C160.44 836.479 164.961 840.548 162.7 845.07C157.275 855.921 156.822 868.581 145.067 877.172C116.129 897.519 67.2977 886.215 48.3076 856.826C29.3175 827.436 21.1789 726.608 33.3868 697.671C45.5948 668.733 47.8555 684.106 49.6641 677.324C51.4726 670.542 45.1426 646.126 46.9512 629.397C57.8027 544.393 131.502 432.713 218.314 411.915C272.12 399.255 274.832 473.859 330.446 453.964L323.664 508.222C365.714 476.119 333.159 422.314 392.39 400.611C451.621 378.908 489.601 434.07 547.476 417.793L497.74 406.489C474.681 393.377 449.813 374.839 422.232 373.03C376.565 370.317 320.499 422.766 342.202 332.789C363.905 242.812 424.04 237.839 479.202 236.934L432.179 227.439L425.849 220.205C412.285 157.809 502.714 133.393 548.38 147.41C601.281 163.687 560.136 233.769 561.492 269.941C564.657 278.532 591.786 287.123 601.281 293.453C623.888 309.278 675.433 383.882 684.024 409.654C700.301 458.486 665.034 500.083 622.984 517.717C552.902 547.106 507.687 539.42 436.7 538.967C376.565 538.967 375.661 639.796 333.611 662.403C291.562 685.01 259.912 670.994 230.974 647.935C225.096 653.812 265.337 692.245 276.189 688.628C277.545 700.383 266.242 704.453 258.103 708.974C230.522 723.895 192.09 727.964 161.344 724.347C130.598 720.73 132.407 713.043 117.938 713.496C142.354 751.024 200.228 734.294 226.453 745.146C238.661 750.119 259.912 790.812 271.667 803.925C302.413 837.836 339.037 852.304 384.704 846.878C382.895 837.836 375.209 839.644 368.879 837.836C331.351 827.436 292.014 820.654 282.971 774.987C273.928 729.321 335.42 702.644 364.357 661.499C393.294 620.354 383.799 613.572 399.172 592.321C433.988 544.845 462.925 568.809 513.565 566.548C567.37 564.288 659.608 521.334 701.205 559.766L737.377 620.806C743.707 582.374 699.397 547.558 696.684 514.1C693.971 480.641 708.892 476.571 710.248 456.225C712.509 425.027 702.11 404.68 701.658 375.291C704.823 365.344 722.004 364.892 730.595 358.562C739.186 352.232 751.393 333.694 759.984 329.172C768.575 324.651 792.991 322.842 807.459 317.868C835.945 307.921 865.786 282.149 868.499 250.047L843.631 277.175C796.156 313.799 737.377 314.251 746.42 238.743C755.463 163.235 759.08 212.067 758.628 198.954C758.176 185.842 748.681 169.565 750.941 148.314C753.202 127.063 764.054 127.967 762.245 114.403C727.43 137.463 741.446 165.043 736.925 197.598C732.403 230.152 719.743 235.578 724.265 269.941C728.786 304.304 747.776 311.086 726.978 330.076C706.179 349.067 683.12 344.093 666.39 337.311C649.661 330.529 586.813 262.255 584.552 251.403C577.77 219.753 608.063 177.703 628.862 155.096L588.169 177.703C597.664 118.925 508.139 138.819 488.245 126.159C473.776 116.664 497.74 84.1094 506.783 76.4229C535.268 52.0071 679.502 19.4526 716.126 24.4262C722.456 25.3305 740.09 29.3998 741.446 35.7298C732.403 75.5186 694.423 58.3371 665.938 72.8058C637.453 87.2744 641.974 87.7265 648.756 96.3173C668.199 72.3536 692.162 81.3965 716.126 77.7794C754.106 71.9015 765.41 13.5747 811.529 14.479C857.648 15.3833 824.189 58.7892 849.961 69.1886C846.796 26.6869 863.978 4.98396 906.479 1.3668C948.981 -2.25036 1085.98 0.462519 1114.01 19.9048C1142.05 39.347 1121.7 24.8784 1121.7 30.7562L1094.12 60.1457H1095.02ZM848.605 150.575C871.212 149.67 893.819 150.575 916.427 150.575C939.034 150.575 934.06 158.713 937.225 161.426C943.555 166.852 943.103 176.799 950.337 177.703C964.354 132.941 990.578 98.1259 1027.2 69.1886C992.839 67.8321 959.832 131.585 934.964 127.967C910.096 124.35 910.549 76.4229 914.166 55.6242C891.106 74.1622 893.367 110.786 900.601 137.01L841.823 148.314C830.519 166.852 846.344 150.575 848.605 150.575ZM258.555 548.463C236.4 528.568 209.723 514.552 197.516 485.162C181.69 491.944 198.872 526.76 204.298 536.707C177.169 559.314 139.189 575.139 127.433 611.763C166.318 582.374 207.915 551.628 258.555 548.463Z" fill="black"/>
<path d="M1662.02 596.832C1620.87 558.852 1689.15 532.176 1700.45 509.116C1711.75 486.057 1711.75 467.519 1696.83 458.024C1702.26 485.605 1687.34 524.489 1657.04 529.463C1626.75 534.436 1643.48 486.961 1615.45 476.11C1620.42 491.935 1626.3 507.308 1628.56 524.037C1632.63 559.304 1622.23 607.232 1659.31 628.935C1730.74 671.436 1751.54 554.331 1800.83 541.218C1904.37 513.638 1910.7 679.575 1837.45 722.077C1856.89 734.285 1871.36 748.753 1872.72 773.169C1874.07 797.585 1847.4 816.575 1846.49 840.087C1845.59 863.598 1861.87 872.189 1864.58 889.822C1867.29 907.456 1863.22 925.09 1864.58 941.367C1883.57 927.35 1879.95 899.318 1882.67 880.327C1885.38 861.337 1913.41 881.684 1922 886.205C1964.96 910.169 1975.35 944.984 1962.69 992.007C1950.03 1039.03 1926.52 1020.94 1900.75 991.103C1907.99 1029.54 1957.72 1061.19 1918.38 1101.43C1879.05 1141.67 1868.2 1112.28 1840.62 1118.61C1813.03 1124.94 1819.82 1132.17 1808.97 1136.69C1785.91 1145.74 1766.46 1146.64 1742.5 1140.31L1777.77 1160.66L1751.54 1194.57C1776.41 1197.73 1789.07 1157.49 1796.76 1151.61C1804.44 1145.74 1816.65 1147.09 1825.24 1143.93C1842.42 1136.69 1846.04 1124.03 1874.98 1132.17C1916.58 1144.38 1866.39 1195.02 1848.75 1208.13C1794.04 1247.92 1681.01 1246.11 1625.39 1209.94C1568.42 1172.87 1632.63 1121.32 1633.99 1077.01C1685.53 1092.38 1738.88 1089.67 1782.74 1056.21C1787.26 1053.05 1810.77 1032.25 1805.8 1027.27C1744.76 1078.82 1614.54 1097.36 1620.42 984.321C1620.42 977.086 1621.33 965.783 1626.3 960.809C1631.27 955.836 1660.66 949.506 1665.64 937.298L1532.25 948.149C1491.11 948.149 1479.8 934.133 1447.25 918.308C1414.69 902.482 1414.24 916.499 1408.82 893.44C1395.25 836.017 1450.87 803.463 1476.19 759.605C1494.72 727.502 1505.12 691.783 1518.24 656.968C1529.99 675.506 1529.99 697.209 1539.03 717.555C1563 769.552 1621.33 781.308 1672.42 792.159C1684.63 808.436 1655.24 839.634 1651.62 855.912C1681.91 836.017 1679.65 801.654 1708.14 779.047C1767.37 731.572 1763.75 781.76 1760.13 831.044C1756.52 880.327 1746.57 893.892 1735.27 928.255C1723.96 962.618 1728.94 942.723 1737.53 941.819C1775.96 875.354 1796.31 805.271 1781.38 728.407C1780.48 722.529 1766.01 667.819 1760.13 675.054C1754.71 766.387 1659.76 805.723 1590.58 742.875C1516.43 675.958 1519.14 475.205 1558.93 390.202C1598.72 305.199 1672.87 346.796 1713.56 366.69C1742.05 380.707 1818.46 467.519 1822.98 497.36C1827.5 527.202 1798.11 510.473 1781.84 513.185C1737.98 520.872 1754.71 575.581 1725.77 597.284C1708.59 609.945 1678.3 611.301 1662.47 596.38L1662.02 596.832Z" fill="black"/>
<path d="M1147.93 1399.85C1173.25 1421.11 1196.76 1474.46 1234.29 1483.05C1247.4 1486.21 1262.77 1479.43 1271.82 1490.74C1280.41 1521.93 1358.63 1612.36 1357.27 1635.87C1355.91 1659.39 1293.97 1681.99 1280.86 1685.61C1267.75 1689.23 1269.1 1689.68 1262.77 1685.61C1190.43 1604.68 1136.17 1517.86 1044.39 1456.37C952.601 1394.88 929.09 1407.99 919.143 1348.76C950.341 1350.57 1034.89 1299.93 1057.05 1303.1C1079.2 1306.26 1091.41 1370.01 1118.54 1386.74C1145.67 1403.47 1137.53 1391.26 1148.38 1399.85H1147.93Z" fill="black"/>
<path d="M475.584 82.7568C476.94 127.519 445.742 173.638 398.719 173.186C443.029 224.73 376.112 254.12 348.983 283.961C321.854 313.803 328.185 321.037 320.046 327.367C305.125 338.219 283.874 326.463 266.241 327.367C248.607 328.272 227.808 339.123 208.818 345.001C207.914 353.592 217.861 348.166 222.383 347.262C251.772 341.384 269.858 332.793 298.795 351.783C327.732 370.773 349.435 408.301 319.594 426.387C289.752 444.473 267.597 393.833 229.165 394.737C203.845 395.189 154.109 423.222 133.762 439.499C103.468 463.915 93.5212 501.443 47.4023 466.628C55.9931 421.866 95.7819 357.209 133.762 330.985C155.465 316.064 180.333 317.42 200.68 307.473C221.026 297.526 225.548 276.275 243.181 264.067C260.815 251.859 283.874 246.433 303.317 240.556C304.221 231.965 293.822 236.938 288.848 237.391C264.884 240.103 239.112 248.242 220.574 264.067C202.036 279.892 195.254 305.664 158.63 299.334C236.851 199.862 352.148 115.763 475.132 82.3047L475.584 82.7568Z" fill="black"/>
<path d="M1682.37 1267.82C1689.16 1277.77 1664.29 1342.42 1652.98 1353.73C1645.75 1355.08 1588.78 1320.72 1574.31 1314.84C1504.68 1287.26 1426.91 1280.03 1352.76 1280.93C1357.73 1242.5 1401.59 1230.74 1433.69 1223.96C1519.15 1206.78 1603.25 1238.43 1681.92 1267.82H1682.37Z" fill="black"/>
<path d="M1247.85 1132.62C1261.86 1130.81 1317.48 1169.24 1320.64 1180.09C1327.42 1204.51 1288.99 1211.74 1271.81 1215.36C1218.01 1227.11 1152.9 1225.31 1097.74 1230.73C1068.35 1224.85 1016.35 1154.32 1066.99 1145.73C1092.76 1141.21 1134.81 1166.53 1170.08 1162.91C1205.35 1159.29 1223.43 1135.33 1248.3 1132.16L1247.85 1132.62Z" fill="black"/>
<path d="M1321.1 1244.78C1314.77 1290.45 1216.65 1379.07 1174.6 1375.9C1132.55 1372.74 1133.46 1365.5 1131.65 1364.6C1117.18 1358.27 1090.51 1314.41 1097.29 1299.49C1104.07 1284.57 1133.91 1274.62 1149.28 1270.1C1204.9 1252.92 1263.68 1251.11 1321.1 1245.23V1244.78Z" fill="black"/>
<path d="M1468.05 1303.54C1499.25 1307.15 1598.72 1341.52 1619.52 1364.58C1640.32 1387.64 1624.95 1371.81 1626.76 1375.88C1595.56 1428.33 1541.75 1407.08 1493.83 1390.8C1444.09 1374.07 1388.93 1348.75 1352.76 1310.32C1352.3 1308.96 1363.16 1303.54 1364.06 1303.54C1395.71 1303.54 1438.21 1299.92 1468.05 1303.54Z" fill="black"/>
<path d="M1524.57 1430.14C1427.36 1464.05 1334.22 1449.58 1273.18 1362.31C1275.89 1351.46 1317.49 1316.2 1327.43 1318C1359.54 1351.01 1397.06 1373.17 1439.11 1391.7C1447.25 1395.32 1531.8 1421.55 1525.02 1430.14H1524.57Z" fill="black"/>
<path d="M1898.95 685.028C1907.54 683.219 1913.42 682.315 1920.65 688.645C1939.19 705.374 1958.18 812.533 1959.08 840.113C1959.99 867.694 1961.8 864.529 1951.4 869.051C1941 872.668 1891.71 860.46 1879.96 855.938C1844.69 842.826 1874.98 816.15 1879.96 797.612C1889.91 759.179 1862.32 727.529 1864.59 719.391C1866.85 711.252 1889.45 687.288 1898.95 685.48V685.028Z" fill="black"/>
<path d="M403.253 978.014C395.566 1047.64 319.154 1025.04 272.13 1011.93C225.107 998.813 210.639 994.291 209.734 984.796C235.959 929.183 262.183 968.067 297.451 973.041C332.718 978.014 399.635 974.397 403.253 978.014Z" fill="black"/>
<path d="M165.879 901.147C188.939 904.312 226.014 921.041 235.962 944.101C216.519 949.979 178.991 977.559 161.358 977.559C131.064 977.559 73.6415 923.754 59.625 896.625C65.5029 894.365 70.0243 901.147 70.9286 901.147C99.4138 901.147 139.655 897.53 165.879 901.147Z" fill="black"/>
<path d="M1343.72 1448.22L1341.46 1457.26C1270.02 1464.5 1216.66 1483.94 1180.95 1403.01L1250.12 1376.78L1343.72 1448.22Z" fill="black"/>
<path d="M73.1838 494.219C62.7844 539.433 40.6293 580.126 30.23 625.341C19.8306 670.555 22.9957 680.955 18.9264 708.988C14.857 737.021 18.4742 723.004 9.88344 724.813C-10.9152 648.852 3.10127 566.562 33.395 495.123L73.1838 494.219Z" fill="black"/>
</svg>
