<svg width="1811" height="1821" viewBox="0 0 1811 1821" fill="none" xmlns="http://www.w3.org/2000/svg">
<path d="M948.356 355.368C958.303 357.629 960.112 352.203 965.99 346.325C1039.24 270.817 1074.96 222.437 1188.9 203.447C1505.4 150.546 1766.29 412.79 1803.82 712.11C1884.75 1357.32 1164.93 2035.54 554.99 1636.75C504.802 1604.19 394.931 1493.87 349.264 1488.44C213.62 1471.71 262.904 1702.76 252.957 1780.08C248.435 1813.99 213.62 1816.25 185.135 1818.51C156.65 1820.77 22.363 1826.65 7.89435 1794.55C-6.5743 1762.44 2.92042 1589.72 4.729 1555.36C10.6069 1429.66 35.0228 1303.52 160.267 1244.74C285.511 1185.96 472.247 1284.07 637.732 1220.77C825.373 1149.33 876.013 882.117 821.756 708.945C800.957 643.384 760.264 581.893 736.3 517.236C681.138 368.028 691.99 269.46 689.277 115.731C686.564 -37.9985 673.452 52.4305 691.086 20.3282C710.98 -6.80049 875.109 -2.27903 909.019 8.12031C922.584 12.1896 929.367 25.754 931.175 38.8662C941.575 119.8 927.558 222.437 937.505 309.701C947.452 396.965 946.548 339.543 948.808 354.464L948.356 355.368ZM1241.8 309.701C1172.17 317.388 1089.88 359.437 1042.85 411.434C898.621 571.945 993.571 774.506 965.086 964.86C942.027 1117.68 860.188 1262.82 709.624 1317.08C633.211 1344.66 523.792 1328.38 560.416 1447.75C593.422 1555.81 738.561 1613.24 840.746 1627.7C1374.28 1703.66 1850.39 1053.48 1639.69 563.355C1573.22 409.625 1415.42 289.807 1242.25 309.249L1241.8 309.701Z" fill="black"/>
<path d="M1017.54 1100.49C1167.65 1078.34 1362.52 1114.06 1517.61 1098.68C1588.14 1106.82 1543.38 1175.09 1523.03 1210.36C1376.99 1464.47 1022.06 1667.03 731.78 1542.24C679.331 1519.63 610.153 1471.25 606.988 1409.76C612.866 1387.6 719.572 1372.23 747.605 1361.38C861.094 1316.16 933.89 1221.21 983.173 1113.6C991.764 1105.46 1006.23 1102.3 1017.54 1100.94V1100.49Z" fill="black"/>
<path d="M1318.21 781.304C1404.12 755.532 1405.48 893.436 1318.21 867.212C1283.85 856.812 1279.78 792.608 1318.21 781.304Z" fill="black"/>
<path d="M1329.97 1038.11C1308.27 1064.34 1258.98 1050.77 1261.24 1013.7C1265.76 939.998 1369.31 990.639 1329.97 1038.11Z" fill="black"/>
<path d="M1179.85 905.62C1205.17 883.012 1249.03 926.418 1217.38 952.191C1185.73 977.963 1156.34 926.871 1179.85 905.62Z" fill="black"/>
</svg>
