<svg width="1217" height="1872" viewBox="0 0 1217 1872" fill="none" xmlns="http://www.w3.org/2000/svg">
<path d="M909.747 1870.52C884.427 1876.85 887.14 1850.63 883.975 1834.35C864.533 1741.21 808.466 1396.22 825.648 1321.17C842.829 1246.11 880.358 1269.62 851.42 1224.41C834.691 1198.64 749.236 1157.49 722.107 1179.19C680.962 1212.2 740.645 1255.61 746.523 1290.87C752.853 1331.57 742.906 1382.21 746.975 1424.71C761.443 1572.56 793.546 1719.06 814.344 1866L719.394 1870.07C647.503 1649.43 577.42 1441.44 593.697 1204.51C597.767 1148 640.721 999.693 624.896 962.165L0.0308192 531.271C-2.68205 513.185 174.559 304.294 194.453 307.911C323.767 427.729 467.097 535.34 594.15 657.419C651.572 712.581 724.82 770.003 708.542 858.624C704.925 878.518 686.839 886.657 689.552 915.594C703.569 1056.66 989.777 976.634 1021.43 797.132C1050.36 633.003 954.962 694.495 853.681 628.03L326.027 166.842L482.922 0C619.018 142.426 745.618 293.894 880.81 436.772C956.77 516.802 1174.25 696.756 1204.55 784.924C1248.86 914.69 1159.78 1111.83 1149.84 1252.44C1135.82 1457.26 1165.66 1666.61 1140.34 1870.98H1063.48C1068.9 1722.67 1056.69 1572.56 1063.48 1424.26C1067.55 1334.73 1089.25 1234.36 1092.41 1146.19C1095.58 1058.92 1082.92 982.964 982.09 968.947L729.341 1047.17C707.186 1160.2 830.621 1147.54 876.74 1189.14C922.859 1230.74 910.199 1249.73 910.199 1261.49V1870.52H909.747ZM1053.53 772.264V954.479C1053.53 967.591 1086.54 973.921 1101.91 964.426C1156.17 930.515 1144.41 779.951 1077.94 757.343L1053.98 772.264H1053.53Z" fill="black"/>
</svg>
