<svg width="1685" height="1844" viewBox="0 0 1685 1844" fill="none" xmlns="http://www.w3.org/2000/svg">
<path d="M1592.61 700.652C1671.73 749.935 1651.39 835.843 1595.32 895.074C1611.15 959.731 1619.74 1038.4 1565.03 1087.24C1541.06 1108.94 1509.41 1118.43 1479.57 1127.93C1465.1 1174.05 1446.56 1225.14 1403.16 1250.91C1359.75 1276.68 1321.32 1269.45 1278.37 1258.6C1232.25 1305.17 1172.56 1361.69 1102.03 1328.68C1083.94 1320.09 1068.12 1305.62 1054.1 1291.15C1036.92 1328.23 1010.24 1358.97 965.482 1354.45C964.126 1355.81 976.334 1370.73 978.143 1373.44C1005.72 1420.92 987.638 1454.83 959.605 1495.52C1004.82 1544.35 1035.56 1606.75 993.515 1668.69C951.466 1730.64 951.918 1711.2 929.311 1728.38C918.911 1760.93 912.129 1794.84 902.634 1827.85C893.139 1860.86 903.991 1831.47 898.565 1831.01L836.621 1729.28C785.981 1722.05 744.835 1706.22 725.845 1655.13C713.637 1622.12 717.707 1599.06 715.898 1565.61C713.638 1527.63 702.334 1480.6 727.202 1446.69C736.697 1433.58 749.357 1429.51 762.469 1420.92C738.053 1390.63 709.568 1351.74 743.931 1316.93C778.294 1282.11 806.327 1268.55 828.935 1253.17C872.341 1222.88 917.103 1203.44 970.908 1199.82C993.515 1198.46 1016.57 1202.08 1039.18 1200.72C1048.68 1198.01 1059.08 1174.05 1067.67 1165.91C1088.92 1145.56 1114.24 1145.11 1140.91 1153.7C1167.59 1162.29 1173.92 1175.86 1187.49 1153.7C1201.05 1131.55 1208.74 1103.06 1240.39 1090.4C1272.04 1077.74 1279.27 1087.69 1307.3 1089.95C1335.34 1092.21 1329.01 1074.58 1337.15 1058.75C1366.08 1001.78 1398.19 968.322 1459.68 947.071C1470.08 943.454 1494.49 939.836 1500.82 933.054C1510.77 922.203 1500.82 899.596 1499.92 885.127C1496.75 842.625 1503.99 800.576 1523.88 762.595C1543.78 724.615 1551.01 726.876 1558.7 711.955C1566.38 697.034 1553.27 686.183 1547.85 672.618C1532.92 635.09 1527.05 591.684 1530.66 551.444C1534.28 511.203 1542.87 509.394 1542.42 504.873C1541.97 500.351 1534.73 488.143 1532.92 482.265C1520.26 441.572 1517.1 401.783 1536.99 361.995C1492.23 339.839 1451.54 314.067 1417.18 277.444C1424.86 323.11 1464.65 352.047 1500.37 376.463C1481.38 427.104 1480.48 476.388 1514.84 520.698C1493.14 578.572 1503.08 639.16 1522.98 695.678C1490.42 738.632 1465.1 789.272 1461.94 844.434C1458.77 899.596 1463.75 885.579 1463.75 906.378C1389.59 924.011 1329.91 978.721 1300.97 1048.35C1241.29 1034.79 1187.94 1066.89 1162.17 1120.24C1107 1097.64 1054.1 1113.01 1022.45 1162.74C936.997 1153.25 851.542 1183.09 786.433 1238.25C782.816 1236.9 791.406 1219.26 784.624 1221.98C691.482 1306.53 565.786 1370.28 444.159 1299.74C428.334 1290.7 415.674 1278.04 399.849 1268.55C388.093 1287.99 371.364 1307.88 353.73 1322.8C336.096 1337.72 340.618 1333.65 339.261 1331.85C352.826 1229.66 314.393 1129.74 233.459 1065.99C264.657 1008.56 290.43 938.028 238.433 883.77C234.816 879.701 225.321 876.084 225.321 870.658C225.321 865.232 237.981 841.269 240.241 834.486C259.232 771.186 243.407 716.024 199.096 669.001C191.862 661.315 183.271 656.794 176.941 648.203C183.271 633.282 192.766 620.17 197.74 604.797C209.496 567.721 202.713 532.001 181.01 500.351C216.73 452.876 245.667 391.384 225.321 330.797C204.974 270.209 222.156 320.397 218.991 319.493C218.991 380.081 195.479 437.503 151.621 479.1C145.291 484.978 137.152 485.43 135.796 495.83C134.439 506.229 145.743 517.081 152.073 527.48C172.42 559.582 167.446 587.163 148.456 618.361C129.466 649.559 127.657 640.064 129.014 654.081C130.37 668.097 150.717 676.236 159.76 684.374C215.374 735.467 221.251 783.846 191.41 852.12C161.568 920.394 182.819 864.328 181.01 870.206C175.133 892.361 193.67 894.622 206.331 905.926C245.667 940.289 226.677 991.833 207.235 1031.17C187.793 1070.51 186.888 1060.56 187.793 1070.51C188.697 1080.45 213.113 1096.73 222.608 1105.32C292.69 1170.88 315.75 1262.22 295.855 1355.81C198.644 1395.15 109.119 1358.07 94.6507 1249.56C80.182 1141.04 99.1722 1146.92 110.928 1097.18L110.024 1094.02C81.0864 1070.51 52.6012 1031.62 49.8883 993.189C47.1755 954.757 62.5484 926.272 82.4428 895.526C40.8454 860.259 4.67377 813.688 16.4295 755.813C28.1853 697.939 36.324 706.077 52.1491 685.731C67.9741 665.384 76.5649 661.315 74.3042 658.15C45.3669 641.873 8.74313 611.579 1.50881 577.216C-6.17766 538.784 16.8817 500.803 39.489 471.414C14.621 434.338 -6.1777 395.001 4.22164 348.883C11.0038 319.945 29.0896 298.694 49.4362 277.896C35.8718 237.203 22.3075 191.988 39.9412 150.391C57.5748 108.793 105.05 89.8032 146.195 83.9253C200.905 104.272 256.971 114.671 303.09 153.104C349.208 191.536 327.958 181.589 342.878 192.892C407.083 193.797 482.139 179.78 534.588 225.447C544.987 234.49 540.918 241.272 561.717 238.107C614.618 229.968 639.938 215.5 697.812 227.255C717.255 231.325 734.436 239.915 753.426 244.437C813.109 210.074 861.941 189.728 927.954 223.186C937.902 228.16 944.684 237.655 957.344 236.751C970.004 235.846 973.169 225.447 980.855 219.569C1027.43 184.754 1074.45 190.179 1126.45 208.265C1145.89 215.047 1164.88 231.777 1183.42 218.665C1201.95 205.553 1210.55 187.919 1234.96 180.684C1259.38 173.45 1270.68 182.041 1291.48 184.302C1312.28 186.562 1320.87 158.077 1335.34 146.774C1371.96 118.741 1423.05 130.948 1463.29 142.704C1473.24 145.417 1485 152.651 1494.49 151.295C1508.06 149.486 1510.77 134.566 1517.55 125.523C1541.97 93.4204 1576.78 79.404 1615.67 73.074C1654.55 66.7439 1658.62 67.196 1663.59 69.0045C1671.28 71.2653 1681.23 94.7769 1683.04 102.463C1690.27 138.183 1672.19 168.477 1651.84 195.605C1658.62 211.882 1666.31 228.16 1670.38 245.341C1681.23 293.269 1671.28 330.345 1645.06 370.585C1654.1 384.602 1663.59 400.427 1665.4 417.156C1669.47 458.302 1647.32 485.43 1622.45 514.82C1657.72 569.529 1663.59 622.883 1618.38 673.523C1573.17 724.163 1600.29 688.444 1595.77 693.869C1591.25 699.295 1593.06 696.13 1593.96 698.843L1592.61 700.652ZM1447.92 376.916C1409.94 361.543 1377.39 341.196 1398.19 295.529C1400.9 290.104 1407.23 285.13 1406.32 279.252C1352.52 335.318 1282.89 374.203 1205.57 335.318C1177.09 365.612 1151.31 401.784 1111.07 417.609L1126.45 432.981L1128.25 437.955H1131.42C1172.56 394.097 1229.99 397.262 1283.34 412.635C1336.69 428.008 1352.97 431.625 1329.91 451.067C1306.85 470.51 1292.38 443.833 1280.18 439.764C1244.91 428.912 1201.95 422.13 1168.5 442.024C1135.04 461.919 1147.24 457.397 1149.05 464.632C1169.85 498.09 1178.44 540.14 1175.28 579.024C1172.11 617.909 1164.43 626.5 1166.24 628.76C1197.89 647.75 1236.32 649.107 1272.04 644.585C1307.76 640.064 1314.09 634.186 1318.61 635.09C1329.01 636.447 1334.89 653.628 1326.29 659.958C1317.7 666.288 1269.78 672.619 1258.47 673.523C1234.96 674.879 1208.74 672.619 1186.13 666.289C1163.52 659.959 1165.33 656.341 1153.57 654.985C1148.6 669.001 1130.52 708.338 1120.12 716.025C1109.72 723.711 1100.22 717.833 1098.87 708.79C1097.51 699.747 1118.31 669.453 1123.73 658.15C1156.74 588.972 1161.26 511.655 1107.91 451.067C1054.55 390.48 1089.82 436.599 1083.49 428.912C1077.16 421.226 1080.78 421.678 1080.33 421.226C1078.97 420.322 1063.6 418.513 1059.08 416.704C1038.28 409.47 1021.1 395.453 1003.91 382.341C983.568 396.358 965.482 412.635 944.232 425.747C906.251 448.807 859.68 465.988 814.918 455.589C792.763 471.414 808.136 507.133 819.44 526.576C830.743 546.018 852.898 569.077 854.255 575.407C855.611 581.737 847.925 591.684 840.238 591.232C832.552 590.78 811.301 563.199 805.423 555.061C785.529 525.219 766.086 482.718 785.529 448.355C756.591 432.982 732.175 413.539 710.472 389.123H706.403C634.964 441.572 543.179 443.833 491.182 363.803L459.984 371.942L482.139 385.506C532.779 419.869 552.222 466.892 538.657 527.028C525.093 587.163 527.354 572.694 514.241 572.694C488.017 572.694 506.555 541.044 509.72 528.384C524.189 470.962 503.842 428.008 453.202 399.975C402.562 371.942 430.595 391.384 426.978 388.219C423.36 385.054 424.265 380.985 423.36 380.08C421.1 378.724 389.901 380.081 382.215 379.176C340.166 373.298 323.888 336.675 323.436 298.242L308.968 315.424C284.1 338.031 254.258 332.605 225.773 320.85C266.014 354.308 288.621 403.14 240.241 442.024C289.977 489.5 361.869 566.364 291.334 629.213C280.482 638.708 266.918 644.585 256.519 654.533C335.192 682.114 377.694 747.675 309.42 816.401C339.713 834.939 377.241 863.424 380.406 901.856C383.571 940.289 363.677 965.157 346.496 991.381C374.076 1023.94 399.397 1060.11 412.961 1101.25C483.044 1137.42 594.723 1193.04 665.71 1130.19C676.109 1120.69 690.578 1091.31 705.499 1104.42C720.42 1117.53 702.786 1130.64 695.1 1139.23C637.225 1206.15 540.918 1189.87 468.123 1158.67C395.327 1127.48 439.185 1142.85 423.36 1137.42C426.525 1165 426.978 1191.68 420.195 1218.81C413.413 1245.94 408.892 1244.58 412.961 1250.46C417.03 1256.34 433.76 1267.64 437.829 1270.35C563.525 1359.88 712.733 1273.97 804.067 1176.76C806.779 1174.05 825.77 1151.89 825.77 1150.08C826.222 1147.37 823.509 1142.4 823.961 1138.33C827.578 1090.85 830.743 1051.52 799.545 1010.37C745.288 939.384 680.631 996.354 615.522 1004.49C561.717 1011.28 506.555 995.45 466.314 958.826C457.271 950.688 430.595 922.655 455.463 917.229C480.331 911.803 474.453 929.437 483.496 937.124C530.067 978.721 587.941 985.955 647.172 969.678C642.651 940.289 659.832 918.585 681.083 900.5C702.334 882.414 740.766 854.381 745.288 881.058C749.809 907.734 726.298 901.856 714.994 909.542C697.812 920.846 676.109 934.41 674.301 957.018C689.222 954.305 703.238 948.427 718.159 947.071C818.535 938.028 866.01 1042.02 853.35 1127.93C883.644 1115.72 915.746 1108.49 949.205 1109.39C927.05 1082.26 920.72 1051.52 922.529 1016.7C924.337 981.886 927.954 967.417 938.806 963.8C967.743 954.305 952.37 998.163 950.562 1010.37C946.492 1041.12 949.657 1070.05 973.169 1092.21C996.68 1114.36 984.02 1098.09 986.281 1101.25C988.542 1104.42 988.994 1110.75 989.446 1111.2C990.35 1112.1 1012.05 1113.91 1014.77 1113.46C1017.48 1113.01 1017.93 1113.46 1019.29 1113.01C1040.09 1072.31 1076.26 1040.66 1124.64 1044.28C1173.02 1047.9 1142.72 1049.71 1145.89 1047.45C1172.56 999.067 1211.45 961.992 1270.68 966.965C1329.91 971.939 1293.29 972.391 1304.59 974.199C1314.54 922.203 1340.76 870.658 1402.25 877.44C1383.26 799.671 1396.38 716.477 1475.5 681.209C1448.83 650.916 1423.05 609.77 1440.69 568.173C1428.93 570.886 1418.53 576.764 1406.32 579.929C1348.45 594.397 1290.57 575.859 1246.26 537.879C1238.58 531.097 1211 507.585 1229.54 498.543C1248.07 489.5 1256.21 510.751 1266.61 519.341C1319.96 562.747 1389.59 572.695 1446.57 530.645C1414.01 483.622 1406.78 421.678 1448.83 377.82V374.655L1447.92 376.916Z" fill="black"/>
<path d="M1610.69 35.0898L1565.02 47.2978C1530.21 59.5057 1502.18 79.4002 1481.38 110.146C1414.91 87.0867 1331.26 80.3045 1285.15 144.057C1237.22 131.849 1197.88 152.195 1163.52 183.393C1093.89 154.004 1013.41 141.344 952.367 195.149C885.902 153.552 813.106 167.116 748.901 205.097C688.766 180.229 623.657 182.489 561.713 199.671C505.647 150.387 428.783 152.196 358.7 156.717C320.268 111.955 266.01 80.7565 208.588 67.6443C207.684 62.6707 209.04 64.4793 211.301 63.1228C281.383 17.4562 368.195 42.3242 423.809 97.9381C445.06 81.2087 464.954 64.9314 492.083 58.6014C539.558 47.7499 580.251 71.2614 617.327 97.4858C653.951 79.4 691.931 66.2879 733.076 77.5916C774.222 88.8952 761.109 91.6079 775.578 97.4858C812.202 78.0435 852.443 71.2614 893.588 78.0436C934.733 84.8258 933.377 90.2515 938.35 89.3472C943.324 88.4429 952.367 78.9479 957.341 75.7829C1007.98 46.8456 1062.24 58.1492 1115.59 71.2614C1127.35 62.6706 1135.94 52.7236 1149.5 45.9414C1195.62 22.4298 1233.6 40.0634 1274.29 64.4792C1296 43.2284 1317.25 20.1692 1346.19 8.41339C1400.44 -13.2896 1446.11 9.76977 1486.35 45.9414C1524.33 22.882 1569.55 20.6211 1611.59 34.1854L1610.69 35.0898Z" fill="black"/>
<path d="M645.81 623.322C663.444 616.54 681.077 608.854 700.067 607.497C740.76 603.88 776.932 621.966 808.582 645.025C840.232 668.085 835.259 670.798 842.041 670.345C859.675 669.441 874.143 641.86 878.212 626.94C882.282 612.019 880.473 594.837 895.394 593.481C920.714 591.22 905.793 635.078 900.368 647.286C891.777 667.633 879.117 683.91 859.222 693.857C872.787 706.969 883.186 722.794 895.846 736.811C908.506 750.827 927.044 769.817 930.661 766.2C927.044 684.362 1030.59 641.86 981.754 557.309C975.876 546.91 943.773 512.095 942.869 508.477C940.608 495.365 954.625 488.131 965.929 495.817C982.658 507.121 1013.86 552.335 1020.19 572.23C1047.31 659.494 941.061 704.708 959.599 788.807C972.711 793.329 986.727 798.755 1000.74 799.659C1120.11 808.25 1221.84 631.009 1347.54 723.246C1473.24 815.484 1391.85 758.514 1372.86 770.722C1353.87 782.93 1342.11 753.992 1331.26 745.854C1239.48 676.675 1136.84 804.18 1046.41 823.17C895.846 854.368 870.526 704.256 765.628 652.26C660.731 600.263 558.094 806.441 434.658 706.065C311.222 605.689 400.295 655.425 366.384 678.936C357.793 684.814 344.681 706.969 333.83 686.623C322.978 666.276 359.602 648.643 374.071 645.93C388.539 643.217 397.582 645.93 399.843 643.217C413.859 565.448 398.938 483.61 337.447 430.256C327.952 422.118 299.467 411.266 314.839 395.441C330.212 379.616 345.133 400.867 354.628 409.006C426.067 468.237 442.797 568.613 424.711 656.329C436.919 673.511 457.265 692.048 478.064 698.83C552.668 721.89 638.123 620.157 638.575 550.527C639.028 480.897 624.559 507.573 639.932 503.052C655.305 498.53 658.47 510.286 661.635 521.137C670.678 555.953 659.826 593.481 644.453 624.679L645.81 623.322Z" fill="black"/>
<path d="M892.235 877.905C950.562 862.532 1017.03 861.628 1058.17 912.268C1081.23 888.305 1118.31 866.601 1151.77 863.436C1185.23 860.271 1177.99 865.245 1189.75 862.984C1208.28 859.819 1219.14 835.403 1223.21 819.126C1227.27 802.849 1223.21 777.529 1241.29 777.981C1259.38 778.433 1253.05 813.248 1249.88 825.456C1245.36 843.09 1237.67 858.915 1226.37 872.931V875.644C1239.03 878.357 1239.48 895.539 1227.73 900.512C1215.97 905.486 1201.95 894.634 1191.56 892.826C1145.44 883.783 1106.1 902.773 1073.55 933.971C1074.9 945.727 1092.54 977.377 1083.04 987.324C1073.55 997.272 1066.76 991.846 1062.24 985.968C1057.72 980.09 1051.84 956.126 1045.96 945.275C1013.41 886.044 944.232 890.565 887.714 908.651C881.836 920.407 876.41 962.908 855.159 949.344C833.909 935.78 856.516 918.598 859.681 907.294C883.645 813.248 822.153 784.311 738.054 799.684C660.737 814.153 637.225 900.06 543.179 876.549C449.133 853.037 493.443 834.951 450.942 850.324C408.44 865.697 416.579 872.931 410.701 873.383C397.588 873.383 393.519 857.558 401.658 848.515C409.796 839.472 445.968 820.482 463.602 819.126C521.024 814.604 535.493 873.836 604.671 846.255C641.295 831.786 660.285 798.328 696.909 783.859C778.295 751.305 900.374 767.582 892.235 878.357V877.905Z" fill="black"/>
</svg>
