<svg width="1566" height="1461" viewBox="0 0 1566 1461" fill="none" xmlns="http://www.w3.org/2000/svg">
<path d="M849.446 0V581.459C849.446 588.693 889.687 663.749 904.155 671.436C912.294 581.007 910.937 473.848 935.805 387.036C980.116 232.855 1073.71 286.66 1171.83 353.125C1458.03 546.191 1543.94 825.165 1560.22 1159.3C1576.5 1493.44 1569.71 1498.86 1351.78 1414.76C1303.85 1396.22 1260.9 1359.15 1212.97 1342.87C1155.1 1323.43 1098.13 1332.92 1042.51 1310.32C944.848 1270.53 917.719 1167.89 905.059 1072.94C895.564 1000.15 909.581 846.416 894.66 794.419C879.739 742.422 809.205 654.254 796.545 634.812C783.884 615.369 797.449 620.795 779.363 624.865C781.172 682.287 688.934 760.056 679.439 802.105C669.944 844.155 676.274 969.399 669.944 1034.51C659.092 1149.35 636.937 1273.69 513.502 1315.29C462.861 1332.47 410.865 1324.33 359.32 1340.61C275.673 1366.83 105.667 1522.37 31.9671 1384.02C-41.7325 1245.66 30.6107 927.35 63.6173 810.696C111.093 642.498 212.373 493.743 350.729 387.488C489.086 281.234 512.145 266.313 576.35 293.442C658.64 328.257 657.736 601.353 670.396 679.574C683.508 670.983 732.792 580.554 732.792 574.224V0.452035H849.898L849.446 0Z" fill="black"/>
</svg>
