<svg width="1812" height="1440" viewBox="0 0 1812 1440" fill="none" xmlns="http://www.w3.org/2000/svg">
<path d="M971.551 13.6201C892.425 181.818 868.913 371.267 927.24 550.769C947.587 614.069 1018.57 706.759 992.349 771.415C966.125 836.072 877.504 926.953 865.296 939.161C753.617 1052.2 546.082 1014.67 419.481 1108.72C362.963 1150.77 297.402 1261.54 225.963 1269.23C83.0851 1284.15 110.214 1111.43 89.8674 1017.38C69.5208 923.336 12.0986 846.472 3.05571 742.026C-20.0037 478.425 87.1544 210.755 334.478 95.9105C526.187 7.29004 764.92 -18.9344 972.003 13.1679L971.551 13.6201Z" fill="black"/>
<path d="M1079.61 7.75885C1297.09 -14.8484 1427.31 73.3199 1616.76 81.0064C1678.25 83.2671 1748.34 46.6433 1794 89.5971C1839.67 132.551 1788.58 301.201 1747.43 355.006C1665.14 462.165 1541.7 470.756 1444.95 549.881C1370.34 610.468 1329.2 718.079 1231.99 749.729C1172.75 769.171 1101.77 770.528 1043.44 747.921C1024 623.581 941.256 537.673 930.405 406.099C923.17 319.739 958.889 114.013 999.583 37.1483C1014.5 9.11528 1049.32 11.376 1080.06 8.21099L1079.61 7.75885Z" fill="black"/>
<path d="M1317.44 738.396C1326.04 746.987 1281.73 844.198 1267.26 858.667C1240.13 885.796 1216.16 871.779 1175.47 929.654C1100.41 1037.26 1071.93 1209.98 1102.22 1337.04C1132.52 1464.09 1143.37 1421.14 1123.93 1433.8C1099.51 1439.22 1055.65 1446.46 1039.83 1424.3C1024 1402.15 1011.34 1295.89 1006.37 1263.79C995.969 1196.87 1011.79 1105.09 949.85 1058.52L849.022 1176.07C767.184 1246.16 592.656 1299.96 499.966 1230.33C420.388 1170.65 468.768 1105.54 547.894 1085.19C646.009 1060.32 716.092 1073.89 816.92 1016.92C901.471 969.443 925.887 911.568 987.831 850.981C1049.77 790.393 1109.46 813 1207.57 792.654C1248.72 784.063 1279.01 752.865 1316.54 737.492L1317.44 738.396ZM1165.52 864.997C1068.76 847.363 985.118 918.802 967.032 1008.33C1005.01 1030.03 1036.66 1063.49 1039.38 1109.61C1052.94 1108.25 1052.04 1096.95 1055.2 1087.9C1082.78 1004.26 1094.08 928.75 1165.52 865.449V864.997Z" fill="black"/>
</svg>
