<svg width="2203" height="1979" viewBox="0 0 2203 1979" fill="none" xmlns="http://www.w3.org/2000/svg">
<path d="M1713.63 737.929C1724.03 747.876 1725.84 782.239 1715.89 794.447C1700.06 814.341 1654.85 790.378 1630.88 824.289C1606.02 859.556 1632.24 909.744 1665.7 930.995C1681.98 941.394 1781.9 983.444 1802.7 989.774C1841.58 1001.98 1883.63 995.652 1907.15 959.028C1941.51 905.222 1872.33 893.919 1878.21 856.391C1883.18 837.401 1900.36 823.384 1920.71 824.741C1952.81 827.001 2091.17 967.166 2098.86 998.364C2106.54 1029.56 2083.48 1050.36 2057.71 1046.29C2037.82 1043.13 2024.7 1015.55 2005.71 1009.67C1941.51 989.322 1916.19 1077.94 1934.27 1128.58C1952.36 1179.22 1948.74 1147.57 1952.36 1157.52C1974.52 1213.59 1991.24 1303.56 2069.47 1302.66C2135.93 1301.75 2109.25 1236.19 2126.44 1212.23C2139.55 1193.69 2169.39 1191.88 2184.31 1209.52C2209.18 1238.91 2207.82 1428.81 2187.02 1461.81C2166.22 1494.82 2134.57 1484.87 2123.72 1459.1C2112.87 1433.33 2123.72 1407.1 2105.19 1386.76C2060.42 1365.05 2012.04 1382.24 1988.53 1425.19C1979.49 1441.92 1933.37 1553.6 1930.2 1569.88C1920.71 1618.26 1954.17 1691.5 2012.5 1664.83C2070.82 1638.15 2030.58 1640.41 2044.15 1635.89C2070.82 1627.75 2097.05 1634.53 2100.21 1665.28C2103.38 1696.02 2020.63 1781.48 1995.31 1803.18C1968.64 1825.79 1905.34 1882.76 1882.28 1828.5C1863.74 1783.74 1934.27 1774.7 1912.57 1724.06C1890.87 1673.42 1845.65 1676.13 1809.03 1684.72C1772.41 1693.31 1681.07 1736.27 1666.6 1744.86C1630.89 1767.01 1598.33 1838 1643.55 1864.22C1666.15 1877.33 1699.16 1862.41 1714.98 1881.86C1730.81 1901.3 1730.81 1923.91 1711.82 1938.37C1678.36 1963.24 1497.5 1962.34 1461.33 1938.37C1438.27 1923 1440.08 1892.26 1462.23 1878.24C1494.34 1857.89 1567.58 1889.99 1542.72 1796.4C1517.85 1702.81 1474.44 1737.17 1431.49 1719.08C1382.66 1698.29 1314.38 1649.91 1266.46 1709.59C1222.15 1764.75 1302.63 1785.1 1288.61 1832.57C1274.14 1880.5 1209.49 1831.22 1188.69 1813.58C1165.18 1794.14 1019.13 1658.04 1092.38 1635.89C1141.21 1620.97 1158.85 1704.16 1217.62 1654.88C1274.59 1606.95 1226.21 1540.94 1205.87 1492.56C1185.52 1444.18 1176.48 1371.84 1097.81 1377.71C1019.13 1383.59 1069.77 1458.2 1033.6 1476.28C1003.76 1490.75 979.796 1469.95 974.37 1441.01C965.779 1396.25 958.998 1246.14 986.126 1213.13C1013.26 1180.13 1032.24 1196.4 1046.26 1220.82C1057.11 1239.36 1046.26 1254.28 1054.85 1271.91C1077.91 1320.74 1147.54 1299.95 1174.22 1266.03C1200.89 1232.12 1239.33 1119.09 1241.14 1110.04C1251.08 1061.66 1216.72 991.13 1161.11 1009.67C1105.49 1028.21 1106.4 1077.04 1080.17 1035.89C1056.21 998.365 1100.52 953.15 1124.48 925.569C1146.64 900.249 1267.81 773.648 1288.61 849.609C1309.41 925.569 1263.74 891.206 1257.41 916.978C1242.04 982.539 1312.58 1002.89 1365.93 991.582C1383.11 987.965 1398.03 972.14 1414.76 965.81C1473.54 943.655 1556.28 931.447 1546.79 847.348C1537.29 763.249 1464.95 819.767 1448.67 783.143C1432.39 746.52 1445.05 746.068 1461.78 735.668C1491.17 717.13 1690.57 715.321 1713.63 737.477V737.929ZM1551.31 1041.77C1517.85 1005.6 1407.98 1035.44 1425.61 1089.7C1456.36 1144.41 1598.78 1094.22 1551.31 1041.77ZM1766.98 1088.79C1701.87 1130.84 1800.44 1263.77 1856.96 1226.25C1896.29 1176.96 1825.31 1071.16 1766.98 1088.79ZM1260.58 1304.47C1226.67 1315.77 1239.78 1424.74 1283.64 1415.24C1326.14 1405.75 1317.1 1285.93 1260.58 1304.47ZM1504.28 1311.7C1434.2 1330.24 1458.62 1445.08 1535.48 1442.82C1612.35 1440.56 1608.28 1284.57 1504.28 1311.7ZM1869.62 1445.99C1817.17 1408.46 1735.78 1503.86 1765.62 1546.82C1795.92 1590.22 1900.82 1495.27 1869.62 1445.99ZM1473.54 1608.76L1469.92 1632.27C1483.03 1663.92 1541.81 1676.13 1558.99 1643.12C1566.23 1615.09 1497.5 1586.61 1473.54 1608.76Z" fill="black"/>
<path d="M1532.77 297.54C1352.82 284.428 1172.41 251.421 1002.86 189.477C938.201 165.966 878.066 133.412 814.314 108.544C591.406 221.128 344.535 281.715 94.9505 297.54C111.228 595.052 54.2576 921.953 146.043 1208.61C246.419 1522.4 499.168 1777.86 813.861 1876.43L1009.19 1796.4L1052.59 1874.62C1056.21 1887.74 1050.79 1881.86 1044.91 1885.47C1005.57 1908.08 852.746 1979.97 814.314 1978.16C781.759 1976.81 671.888 1928.43 637.073 1912.15C278.974 1741.69 30.2937 1372.29 0 976.21L3.61738 223.388C18.9903 188.121 124.792 199.877 158.703 196.26C319.214 179.078 498.716 139.742 647.924 78.2498C681.835 64.2333 790.349 1.38519 813.409 0.0287502C836.468 -1.32769 909.716 45.6954 942.27 60.164C1153.87 153.306 1328.4 175.913 1555.38 196.26C1594.26 199.877 1628.17 203.042 1633.15 246.448C1641.74 318.339 1641.74 518.639 1633.15 590.983C1625.46 658.804 1542.27 656.996 1532.32 590.53C1525.54 547.124 1542.72 307.488 1532.32 297.088L1532.77 297.54Z" fill="black"/>
<path d="M1257.87 734.748C1228.93 707.619 1248.83 594.583 1242.5 554.342C1100.07 528.118 959.456 490.137 826.073 433.619C800.753 429.55 731.123 465.269 701.282 474.765C600.453 507.319 497.364 535.352 392.918 554.794C400.153 744.695 367.598 941.378 425.925 1124.5C477.469 1286.82 602.714 1444.62 750.565 1528.72C842.803 1581.16 810.7 1549.06 884.852 1528.72C948.152 1511.53 976.638 1574.38 938.658 1609.65C926.45 1620.95 830.595 1667.52 814.77 1667.07C788.545 1666.17 713.037 1620.95 687.265 1605.13C456.219 1461.35 306.559 1207.69 290.734 935.048C284.404 826.533 278.526 619.903 290.734 515.91C298.42 450.349 397.44 455.322 453.053 441.758C580.558 411.012 702.637 369.415 824.717 326.461C972.116 405.134 1139.86 420.055 1294.5 464.365C1330.67 474.765 1339.71 483.807 1344.23 522.692C1348.3 558.863 1349.66 700.837 1330.67 725.253C1315.75 745.147 1275.96 750.121 1257.87 733.392V734.748Z" fill="black"/>
</svg>
