<svg width="2122" height="1610" viewBox="0 0 2122 1610" fill="none" xmlns="http://www.w3.org/2000/svg">
<path d="M660.957 578.945C739.63 550.912 817.4 513.384 881.152 459.127L940.835 518.81C875.274 583.015 788.01 619.186 705.267 656.714C768.116 704.189 823.729 757.09 868.944 821.747C1027.65 1049.18 1025.39 1338.1 1033.98 1605.31L949.426 1609.84C940.383 1438.93 944 1263.95 900.142 1097.1C853.571 918.958 739.63 752.117 565.102 681.13C549.729 727.701 584.997 721.823 614.838 738.1C720.64 796.427 762.69 956.939 754.099 1069.97C733.752 1343.52 442.119 1391 245.888 1253.55C-104.977 1007.58 -76.0395 254.305 305.119 43.6051C500.446 -64.4576 726.971 38.6317 781.68 251.14C836.39 463.648 755.455 479.473 660.505 578.945H660.957ZM625.237 565.833C539.33 597.935 514.462 705.094 532.096 787.836C537.521 794.618 540.234 787.836 541.138 781.054C543.851 759.351 542.495 739.005 547.017 715.493C557.868 655.81 581.38 606.526 625.69 565.381L625.237 565.833Z" fill="black"/>
<path d="M1562.53 681.129C1510.09 696.502 1457.18 731.77 1416.04 767.489C1180.92 972.311 1179.57 1313.68 1175.5 1602.15C1170.52 1617.07 1148.82 1605.31 1138.42 1604.86C1121.24 1604.41 1104.51 1604.86 1087.33 1604.86C1097.73 1329.05 1094.56 1031.54 1267.74 800.948C1307.07 748.499 1359.07 695.146 1416.04 662.592L1413.33 653.549C1358.16 629.585 1298.48 603.813 1247.39 571.258C1236.09 564.024 1184.54 531.017 1185.45 519.261C1186.8 501.628 1230.66 478.568 1233.83 458.674H1239.7C1305.26 511.575 1381.22 550.912 1460.35 578.492C1363.59 477.212 1300.74 390.852 1341.44 244.357C1400.21 33.2055 1628.55 -64.91 1821.61 46.3177C2184.69 255.209 2218.15 941.113 1922.44 1216.47C1729.83 1395.52 1385.29 1369.75 1366.76 1060.93C1359.97 943.826 1406.54 788.288 1518.22 731.77C1549.42 715.945 1559.82 729.961 1562.53 680.677V681.129ZM1593.73 772.463C1596.45 750.308 1593.73 720.466 1593.73 696.955C1593.73 673.443 1580.17 649.479 1575.19 639.532C1560.27 608.334 1529.98 573.971 1495.62 565.832C1560.73 622.803 1577.46 705.545 1584.69 787.836C1589.21 789.644 1593.28 774.271 1593.73 772.463Z" fill="black"/>
</svg>
